<svg id="visual" viewBox="0 0 700 900" width="700" height="900" xmlns="http://www.w3.org/2000/svg" xmlns:xlink="http://www.w3.org/1999/xlink" version="1.1"><path d="M0 118L88 118L88 73L175 73L175 100L263 100L263 100L350 100L350 118L438 118L438 55L525 55L525 55L613 55L613 64L700 64L700 82L700 0L700 0L613 0L613 0L525 0L525 0L438 0L438 0L350 0L350 0L263 0L263 0L175 0L175 0L88 0L88 0L0 0Z" fill="#333333"></path><path d="M0 262L88 262L88 163L175 163L175 253L263 253L263 145L350 145L350 217L438 217L438 208L525 208L525 154L613 154L613 154L700 154L700 145L700 80L700 62L613 62L613 53L525 53L525 53L438 53L438 116L350 116L350 98L263 98L263 98L175 98L175 71L88 71L88 116L0 116Z" fill="#2f2f2f"></path><path d="M0 298L88 298L88 208L175 208L175 280L263 280L263 163L350 163L350 253L438 253L438 244L525 244L525 181L613 181L613 199L700 199L700 172L700 143L700 152L613 152L613 152L525 152L525 206L438 206L438 215L350 215L350 143L263 143L263 251L175 251L175 161L88 161L88 260L0 260Z" fill="#2b2b2b"></path><path d="M0 334L88 334L88 244L175 244L175 343L263 343L263 217L350 217L350 325L438 325L438 289L525 289L525 244L613 244L613 244L700 244L700 199L700 170L700 197L613 197L613 179L525 179L525 242L438 242L438 251L350 251L350 161L263 161L263 278L175 278L175 206L88 206L88 296L0 296Z" fill="#272727"></path><path d="M0 379L88 379L88 316L175 316L175 370L263 370L263 253L350 253L350 343L438 343L438 325L525 325L525 289L613 289L613 280L700 280L700 235L700 197L700 242L613 242L613 242L525 242L525 287L438 287L438 323L350 323L350 215L263 215L263 341L175 341L175 242L88 242L88 332L0 332Z" fill="#232323"></path><path d="M0 406L88 406L88 352L175 352L175 397L263 397L263 307L350 307L350 370L438 370L438 361L525 361L525 307L613 307L613 298L700 298L700 280L700 233L700 278L613 278L613 287L525 287L525 323L438 323L438 341L350 341L350 251L263 251L263 368L175 368L175 314L88 314L88 377L0 377Z" fill="#222222"></path><path d="M0 442L88 442L88 424L175 424L175 424L263 424L263 388L350 388L350 415L438 415L438 442L525 442L525 343L613 343L613 343L700 343L700 352L700 278L700 296L613 296L613 305L525 305L525 359L438 359L438 368L350 368L350 305L263 305L263 395L175 395L175 350L88 350L88 404L0 404Z" fill="#222222"></path><path d="M0 586L88 586L88 622L175 622L175 622L263 622L263 487L350 487L350 631L438 631L438 676L525 676L525 595L613 595L613 577L700 577L700 460L700 350L700 341L613 341L613 341L525 341L525 440L438 440L438 413L350 413L350 386L263 386L263 422L175 422L175 422L88 422L88 440L0 440Z" fill="#232323"></path><path d="M0 613L88 613L88 640L175 640L175 676L263 676L263 550L350 550L350 694L438 694L438 721L525 721L525 631L613 631L613 631L700 631L700 487L700 458L700 575L613 575L613 593L525 593L525 674L438 674L438 629L350 629L350 485L263 485L263 620L175 620L175 620L88 620L88 584L0 584Z" fill="#272727"></path><path d="M0 721L88 721L88 712L175 712L175 739L263 739L263 604L350 604L350 784L438 784L438 757L525 757L525 712L613 712L613 694L700 694L700 550L700 485L700 629L613 629L613 629L525 629L525 719L438 719L438 692L350 692L350 548L263 548L263 674L175 674L175 638L88 638L88 611L0 611Z" fill="#2b2b2b"></path><path d="M0 757L88 757L88 739L175 739L175 793L263 793L263 640L350 640L350 811L438 811L438 811L525 811L525 766L613 766L613 748L700 748L700 577L700 548L700 692L613 692L613 710L525 710L525 755L438 755L438 782L350 782L350 602L263 602L263 737L175 737L175 710L88 710L88 719L0 719Z" fill="#2f2f2f"></path><path d="M0 901L88 901L88 901L175 901L175 901L263 901L263 901L350 901L350 901L438 901L438 901L525 901L525 901L613 901L613 901L700 901L700 901L700 575L700 746L613 746L613 764L525 764L525 809L438 809L438 809L350 809L350 638L263 638L263 791L175 791L175 737L88 737L88 755L0 755Z" fill="#333333"></path></svg>