<svg id="visual" viewBox="0 0 960 540" width="960" height="540" xmlns="http://www.w3.org/2000/svg" xmlns:xlink="http://www.w3.org/1999/xlink" version="1.1"><rect x="0" y="0" width="960" height="540" fill="#333"></rect><g fill="none" stroke="#000" stroke-width="1"><circle r="22" cx="6" cy="41"></circle><circle r="9" cx="905" cy="510"></circle><circle r="14" cx="193" cy="196"></circle><circle r="13" cx="149" cy="290"></circle><circle r="14" cx="671" cy="141"></circle><circle r="10" cx="679" cy="407"></circle><circle r="18" cx="857" cy="28"></circle><circle r="8" cx="323" cy="117"></circle><circle r="14" cx="105" cy="365"></circle><circle r="18" cx="360" cy="458"></circle><circle r="19" cx="680" cy="86"></circle><circle r="15" cx="572" cy="539"></circle><circle r="20" cx="108" cy="453"></circle><circle r="14" cx="745" cy="92"></circle><circle r="9" cx="497" cy="273"></circle><circle r="15" cx="627" cy="242"></circle><circle r="10" cx="639" cy="57"></circle><circle r="15" cx="907" cy="82"></circle><circle r="13" cx="436" cy="488"></circle><circle r="11" cx="28" cy="422"></circle><circle r="8" cx="815" cy="398"></circle><circle r="13" cx="453" cy="254"></circle><circle r="11" cx="36" cy="101"></circle><circle r="14" cx="946" cy="187"></circle><circle r="19" cx="279" cy="55"></circle><circle r="14" cx="345" cy="251"></circle><circle r="19" cx="557" cy="346"></circle><circle r="17" cx="710" cy="481"></circle><circle r="14" cx="782" cy="361"></circle><circle r="8" cx="484" cy="92"></circle><circle r="10" cx="618" cy="395"></circle><circle r="15" cx="645" cy="192"></circle><circle r="10" cx="241" cy="420"></circle><circle r="8" cx="895" cy="356"></circle><circle r="17" cx="249" cy="263"></circle><circle r="17" cx="676" cy="305"></circle><circle r="18" cx="553" cy="107"></circle><circle r="20" cx="740" cy="191"></circle><circle r="18" cx="50" cy="377"></circle><circle r="13" cx="840" cy="317"></circle><circle r="16" cx="346" cy="173"></circle><circle r="15" cx="842" cy="211"></circle><circle r="20" cx="392" cy="83"></circle><circle r="17" cx="448" cy="366"></circle><circle r="15" cx="298" cy="382"></circle><circle r="9" cx="382" cy="412"></circle><circle r="17" cx="33" cy="476"></circle><circle r="8" cx="505" cy="381"></circle><circle r="10" cx="57" cy="242"></circle><circle r="15" cx="345" cy="44"></circle><circle r="18" cx="412" cy="24"></circle><circle r="15" cx="576" cy="238"></circle><circle r="11" cx="7" cy="253"></circle><circle r="13" cx="346" cy="506"></circle><circle r="8" cx="155" cy="370"></circle><circle r="18" cx="416" cy="135"></circle><circle r="8" cx="813" cy="272"></circle><circle r="8" cx="954" cy="263"></circle><circle r="8" cx="236" cy="23"></circle><circle r="18" cx="849" cy="112"></circle><circle r="10" cx="128" cy="155"></circle><circle r="14" cx="467" cy="186"></circle><circle r="20" cx="156" cy="469"></circle><circle r="18" cx="90" cy="8"></circle><circle r="8" cx="724" cy="266"></circle><circle r="9" cx="609" cy="2"></circle><circle r="11" cx="11" cy="317"></circle><circle r="10" cx="558" cy="52"></circle><circle r="14" cx="836" cy="470"></circle><circle r="11" cx="880" cy="266"></circle><circle r="8" cx="801" cy="183"></circle><circle r="12" cx="108" cy="263"></circle><circle r="10" cx="396" cy="234"></circle><circle r="11" cx="694" cy="357"></circle><circle r="20" cx="55" cy="522"></circle><circle r="14" cx="447" cy="426"></circle><circle r="11" cx="518" cy="184"></circle><circle r="17" cx="181" cy="532"></circle><circle r="9" cx="310" cy="326"></circle><circle r="12" cx="238" cy="342"></circle><circle r="14" cx="486" cy="39"></circle><circle r="16" cx="462" cy="529"></circle><circle r="20" cx="413" cy="300"></circle><circle r="11" cx="280" cy="500"></circle><circle r="13" cx="226" cy="504"></circle><circle r="9" cx="465" cy="312"></circle><circle r="9" cx="177" cy="135"></circle><circle r="16" cx="952" cy="519"></circle><circle r="14" cx="394" cy="187"></circle><circle r="18" cx="166" cy="36"></circle><circle r="10" cx="56" cy="299"></circle><circle r="8" cx="250" cy="105"></circle><circle r="20" cx="645" cy="523"></circle><circle r="15" cx="915" cy="15"></circle><circle r="16" cx="853" cy="521"></circle><circle r="16" cx="776" cy="55"></circle><circle r="18" cx="947" cy="356"></circle><circle r="10" cx="296" cy="201"></circle><circle r="10" cx="951" cy="447"></circle><circle r="11" cx="117" cy="102"></circle><circle r="16" cx="737" cy="533"></circle><circle r="15" cx="882" cy="452"></circle><circle r="15" cx="509" cy="512"></circle><circle r="13" cx="803" cy="124"></circle><circle r="20" cx="569" cy="444"></circle><circle r="19" cx="783" cy="461"></circle><circle r="18" cx="756" cy="305"></circle><circle r="15" cx="811" cy="4"></circle><circle r="12" cx="501" cy="459"></circle><circle r="17" cx="588" cy="302"></circle><circle r="11" cx="382" cy="359"></circle><circle r="17" cx="615" cy="114"></circle><circle r="12" cx="671" cy="5"></circle><circle r="8" cx="75" cy="161"></circle><circle r="10" cx="56" cy="55"></circle><circle r="11" cx="750" cy="404"></circle><circle r="19" cx="941" cy="118"></circle><circle r="9" cx="624" cy="472"></circle><circle r="12" cx="2" cy="186"></circle><circle r="12" cx="140" cy="215"></circle><circle r="18" cx="250" cy="215"></circle><circle r="8" cx="640" cy="347"></circle><circle r="18" cx="775" cy="235"></circle><circle r="18" cx="799" cy="510"></circle><circle r="10" cx="900" cy="164"></circle><circle r="16" cx="117" cy="522"></circle><circle r="16" cx="928" cy="305"></circle><circle r="11" cx="200" cy="245"></circle><circle r="8" cx="304" cy="449"></circle><circle r="12" cx="276" cy="154"></circle><circle r="9" cx="579" cy="177"></circle><circle r="17" cx="733" cy="30"></circle><circle r="17" cx="954" cy="62"></circle><circle r="14" cx="399" cy="529"></circle><circle r="18" cx="689" cy="213"></circle><circle r="9" cx="496" cy="140"></circle><circle r="15" cx="741" cy="142"></circle><circle r="15" cx="540" cy="302"></circle><circle r="18" cx="919" cy="398"></circle><circle r="12" cx="202" cy="375"></circle><circle r="19" cx="191" cy="90"></circle><circle r="12" cx="897" cy="222"></circle><circle r="19" cx="559" cy="396"></circle><circle r="10" cx="149" cy="418"></circle><circle r="10" cx="3" cy="138"></circle><circle r="20" cx="288" cy="3"></circle><circle r="14" cx="525" cy="5"></circle><circle r="8" cx="112" cy="55"></circle><circle r="15" cx="366" cy="311"></circle><circle r="8" cx="199" cy="447"></circle><circle r="8" cx="186" cy="320"></circle><circle r="12" cx="826" cy="64"></circle><circle r="17" cx="524" cy="231"></circle><circle r="15" cx="108" cy="317"></circle><circle r="14" cx="40" cy="8"></circle><circle r="12" cx="299" cy="273"></circle><circle r="10" cx="555" cy="490"></circle><circle r="16" cx="224" cy="146"></circle><circle r="8" cx="9" cy="535"></circle><circle r="8" cx="1" cy="380"></circle><circle r="20" cx="865" cy="397"></circle><circle r="13" cx="444" cy="63"></circle><circle r="16" cx="90" cy="207"></circle></g></svg>