<svg id="visual" viewBox="0 0 960 540" width="960" height="540" xmlns="http://www.w3.org/2000/svg" xmlns:xlink="http://www.w3.org/1999/xlink" version="1.1"><rect width="960" height="540" fill="#333"></rect><g><g transform="translate(852 265)"><path d="M91.8 -107.2C117.8 -87.6 136.8 -57.5 140.8 -26.1C144.9 5.4 134 38.2 116.4 65.8C98.8 93.3 74.5 115.6 45.2 127.9C15.9 140.2 -18.4 142.5 -47.5 131.5C-76.7 120.6 -100.6 96.2 -117 67.6C-133.5 39 -142.4 6.2 -136.6 -23.6C-130.7 -53.3 -110 -79.8 -84.8 -99.6C-59.5 -119.3 -29.8 -132.2 1.6 -134.1C32.9 -136 65.8 -126.9 91.8 -107.2Z" fill="none" stroke="#ff3791" stroke-width="20"></path></g><g transform="translate(518 406)"><path d="M80 -94.2C103.5 -75.7 122 -50.3 128 -21.8C134 6.7 127.4 38.2 112.1 64.9C96.9 91.5 73.1 113.4 45.3 122.6C17.6 131.8 -13.9 128.4 -42.8 117.8C-71.8 107.2 -98.1 89.5 -112.1 64.9C-126 40.3 -127.7 8.7 -121.8 -20.9C-115.9 -50.6 -102.5 -78.4 -81 -97.2C-59.4 -116.1 -29.7 -126 -0.7 -125.2C28.3 -124.3 56.6 -112.8 80 -94.2Z" fill="none" stroke="#ff3791" stroke-width="20"></path></g><g transform="translate(182 6)"><path d="M70.5 -84.7C90.6 -67.1 105.6 -44.2 111.7 -18.4C117.8 7.4 114.9 36 101.8 58.8C88.7 81.6 65.4 98.6 39.9 106.4C14.5 114.3 -13.1 113 -38.6 104.4C-64.1 95.9 -87.6 80 -101.5 57.7C-115.5 35.4 -119.9 6.8 -114.8 -19.9C-109.7 -46.6 -95.1 -71.2 -74.4 -88.7C-53.6 -106.2 -26.8 -116.5 -0.8 -115.5C25.2 -114.5 50.4 -102.3 70.5 -84.7Z" stroke="#ff3791" fill="none" stroke-width="20"></path></g><g transform="translate(10 397)"><path d="M25.6 -30.2C32.6 -24.7 37.2 -16 38.6 -7C40.1 2.1 38.3 11.6 33.9 19.8C29.5 28.1 22.4 35.1 14 37.9C5.6 40.8 -4.1 39.4 -12.4 35.7C-20.7 32 -27.6 26 -32.6 18.3C-37.6 10.7 -40.6 1.5 -39.2 -7C-37.8 -15.5 -31.9 -23.3 -24.7 -28.7C-17.4 -34.2 -8.7 -37.3 0.3 -37.6C9.3 -38 18.7 -35.7 25.6 -30.2Z" stroke="#ff3791" fill="none" stroke-width="20"></path></g><g transform="translate(542 40)"><path d="M61.8 -73.5C79.9 -58.5 94.2 -38.8 97.9 -17.4C101.6 4.1 94.6 27.3 82.5 47C70.4 66.8 53.3 83 32.3 92.1C11.3 101.2 -13.5 103.3 -34.3 95.3C-55.2 87.3 -72 69.3 -83.6 48.6C-95.2 27.8 -101.6 4.4 -98.7 -18.4C-95.9 -41.3 -83.9 -63.5 -66 -78.6C-48 -93.6 -24 -101.5 -1.1 -100.3C21.8 -99 43.7 -88.6 61.8 -73.5Z" stroke="#ff3791" fill="none" stroke-width="20"></path></g></g></svg>