<svg id="visual" viewBox="0 0 960 540" width="960" height="540" xmlns="http://www.w3.org/2000/svg" xmlns:xlink="http://www.w3.org/1999/xlink" version="1.1"><g stroke-width="1" stroke-linejoin="bevel"><path d="M484 323L513 407L591 332Z" fill="#171717" stroke="#000"></path><path d="M513 407L592 461L591 332Z" fill="#1f1f1f" stroke="#000"></path><path d="M484 323L380 329L513 407Z" fill="#1d1d1d" stroke="#000"></path><path d="M513 407L456 540L592 461Z" fill="#181818" stroke="#000"></path><path d="M613 182L468 188L484 323Z" fill="#1c1c1c" stroke="#000"></path><path d="M484 323L379 247L380 329Z" fill="#171717" stroke="#000"></path><path d="M380 329L381 450L513 407Z" fill="#151515" stroke="#000"></path><path d="M715 238L613 182L591 332Z" fill="#171717" stroke="#000"></path><path d="M591 332L613 182L484 323Z" fill="#181818" stroke="#000"></path><path d="M468 188L379 247L484 323Z" fill="#1c1c1c" stroke="#000"></path><path d="M380 329L269 424L381 450Z" fill="#1c1c1c" stroke="#000"></path><path d="M381 450L456 540L513 407Z" fill="#151515" stroke="#000"></path><path d="M456 540L615 540L592 461Z" fill="#222222" stroke="#000"></path><path d="M752 292L715 238L591 332Z" fill="#151515" stroke="#000"></path><path d="M752 292L591 332L755 441Z" fill="#1f1f1f" stroke="#000"></path><path d="M613 182L498 137L468 188Z" fill="#1a1a1a" stroke="#000"></path><path d="M325 87L234 206L379 247Z" fill="#222222" stroke="#000"></path><path d="M755 441L591 332L592 461Z" fill="#181818" stroke="#000"></path><path d="M615 540L755 441L592 461Z" fill="#151515" stroke="#000"></path><path d="M697 131L619 130L613 182Z" fill="#171717" stroke="#000"></path><path d="M613 182L619 130L498 137Z" fill="#171717" stroke="#000"></path><path d="M715 238L697 131L613 182Z" fill="#202020" stroke="#000"></path><path d="M820 121L697 131L715 238Z" fill="#1a1a1a" stroke="#000"></path><path d="M204 312L269 424L380 329Z" fill="#171717" stroke="#000"></path><path d="M381 450L326 540L456 540Z" fill="#1c1c1c" stroke="#000"></path><path d="M615 540L742 540L755 441Z" fill="#1c1c1c" stroke="#000"></path><path d="M269 424L326 540L381 450Z" fill="#131313" stroke="#000"></path><path d="M814 540L813 399L755 441Z" fill="#111111" stroke="#000"></path><path d="M755 441L813 399L752 292Z" fill="#111111" stroke="#000"></path><path d="M752 292L808 250L715 238Z" fill="#1a1a1a" stroke="#000"></path><path d="M813 399L822 345L752 292Z" fill="#1d1d1d" stroke="#000"></path><path d="M822 345L808 250L752 292Z" fill="#1c1c1c" stroke="#000"></path><path d="M234 206L204 312L379 247Z" fill="#202020" stroke="#000"></path><path d="M379 247L204 312L380 329Z" fill="#1f1f1f" stroke="#000"></path><path d="M269 424L241 540L326 540Z" fill="#1f1f1f" stroke="#000"></path><path d="M325 87L379 247L468 188Z" fill="#202020" stroke="#000"></path><path d="M742 540L814 540L755 441Z" fill="#222222" stroke="#000"></path><path d="M813 399L960 359L822 345Z" fill="#171717" stroke="#000"></path><path d="M487 0L325 87L498 137Z" fill="#1c1c1c" stroke="#000"></path><path d="M498 137L325 87L468 188Z" fill="#181818" stroke="#000"></path><path d="M487 0L498 137L596 0Z" fill="#131313" stroke="#000"></path><path d="M117 438L241 540L269 424Z" fill="#181818" stroke="#000"></path><path d="M596 0L498 137L619 130Z" fill="#181818" stroke="#000"></path><path d="M722 0L596 0L697 131Z" fill="#1a1a1a" stroke="#000"></path><path d="M697 131L596 0L619 130Z" fill="#222222" stroke="#000"></path><path d="M960 183L820 121L808 250Z" fill="#1f1f1f" stroke="#000"></path><path d="M808 250L820 121L715 238Z" fill="#1a1a1a" stroke="#000"></path><path d="M324 0L269 82L325 87Z" fill="#181818" stroke="#000"></path><path d="M325 87L269 82L234 206Z" fill="#171717" stroke="#000"></path><path d="M100 331L117 438L204 312Z" fill="#181818" stroke="#000"></path><path d="M820 121L722 0L697 131Z" fill="#1f1f1f" stroke="#000"></path><path d="M487 0L324 0L325 87Z" fill="#151515" stroke="#000"></path><path d="M960 458L960 359L813 399Z" fill="#1d1d1d" stroke="#000"></path><path d="M822 345L960 359L808 250Z" fill="#1f1f1f" stroke="#000"></path><path d="M204 312L117 438L269 424Z" fill="#1d1d1d" stroke="#000"></path><path d="M100 331L204 312L104 246Z" fill="#202020" stroke="#000"></path><path d="M156 125L234 206L269 82Z" fill="#151515" stroke="#000"></path><path d="M104 246L204 312L234 206Z" fill="#1f1f1f" stroke="#000"></path><path d="M814 540L960 458L813 399Z" fill="#151515" stroke="#000"></path><path d="M258 0L156 125L269 82Z" fill="#222222" stroke="#000"></path><path d="M156 125L104 246L234 206Z" fill="#1a1a1a" stroke="#000"></path><path d="M324 0L258 0L269 82Z" fill="#151515" stroke="#000"></path><path d="M0 540L124 540L117 438Z" fill="#171717" stroke="#000"></path><path d="M117 438L124 540L241 540Z" fill="#1c1c1c" stroke="#000"></path><path d="M820 121L820 0L722 0Z" fill="#202020" stroke="#000"></path><path d="M960 0L820 0L820 121Z" fill="#151515" stroke="#000"></path><path d="M960 359L960 183L808 250Z" fill="#202020" stroke="#000"></path><path d="M814 540L960 540L960 458Z" fill="#171717" stroke="#000"></path><path d="M960 183L960 138L820 121Z" fill="#131313" stroke="#000"></path><path d="M100 331L0 399L117 438Z" fill="#222222" stroke="#000"></path><path d="M0 287L0 399L100 331Z" fill="#1d1d1d" stroke="#000"></path><path d="M0 287L100 331L104 246Z" fill="#171717" stroke="#000"></path><path d="M0 233L104 246L0 80Z" fill="#151515" stroke="#000"></path><path d="M0 233L0 287L104 246Z" fill="#181818" stroke="#000"></path><path d="M258 0L126 0L156 125Z" fill="#1d1d1d" stroke="#000"></path><path d="M0 80L104 246L156 125Z" fill="#202020" stroke="#000"></path><path d="M960 138L960 0L820 121Z" fill="#171717" stroke="#000"></path><path d="M0 399L0 540L117 438Z" fill="#1a1a1a" stroke="#000"></path><path d="M126 0L0 80L156 125Z" fill="#151515" stroke="#000"></path><path d="M126 0L0 0L0 80Z" fill="#131313" stroke="#000"></path></g></svg>