<svg xmlns="http://www.w3.org/2000/svg" xmlns:xlink="http://www.w3.org/1999/xlink" width="500" zoomAndPan="magnify" viewBox="0 0 375 374.999991" height="500" preserveAspectRatio="xMidYMid meet" version="1.2"><defs><clipPath id="edc405f0af"><path d="M 0 0 L 119.640625 0 L 119.640625 375 L 0 375 Z M 0 0 "/></clipPath><clipPath id="06f78f9977"><path d="M 18.75 0 L 100.890625 0 C 111.246094 0 119.640625 8.394531 119.640625 18.75 L 119.640625 356.25 C 119.640625 366.605469 111.246094 375 100.890625 375 L 18.75 375 C 8.394531 375 0 366.605469 0 356.25 L 0 18.75 C 0 8.394531 8.394531 0 18.75 0 Z M 18.75 0 "/></clipPath><clipPath id="54fb713093"><path d="M 170.765625 0 L 374.996094 0 L 374.996094 119.636719 L 170.765625 119.636719 Z M 170.765625 0 "/></clipPath><clipPath id="c598318835"><path d="M 374.996094 18.746094 L 374.996094 100.886719 C 374.996094 111.242188 366.601562 119.636719 356.246094 119.636719 L 189.667969 119.636719 C 179.3125 119.636719 170.917969 111.242188 170.917969 100.886719 L 170.917969 18.746094 C 170.917969 8.394531 179.3125 -0.00390625 189.667969 -0.00390625 L 356.246094 -0.00390625 C 366.601562 -0.00390625 374.996094 8.394531 374.996094 18.746094 Z M 374.996094 18.746094 "/></clipPath><clipPath id="75328fcf39"><path d="M 171 173.960938 L 302.417969 173.960938 L 302.417969 293.601562 L 171 293.601562 Z M 171 173.960938 "/></clipPath><clipPath id="01c95e71aa"><path d="M 302.417969 193.460938 L 302.417969 274.101562 C 302.417969 279.273438 300.367188 284.234375 296.707031 287.890625 C 293.050781 291.546875 288.089844 293.601562 282.917969 293.601562 L 190.417969 293.601562 C 185.246094 293.601562 180.285156 291.546875 176.628906 287.890625 C 172.972656 284.234375 170.917969 279.273438 170.917969 274.101562 L 170.917969 193.460938 C 170.917969 188.289062 172.972656 183.332031 176.628906 179.671875 C 180.285156 176.015625 185.246094 173.960938 190.417969 173.960938 L 282.917969 173.960938 C 288.089844 173.960938 293.050781 176.015625 296.707031 179.671875 C 300.367188 183.332031 302.417969 188.289062 302.417969 193.460938 Z M 302.417969 193.460938 "/></clipPath></defs><g id="506ec47f7a"><g clip-rule="nonzero" clip-path="url(#edc405f0af)"><g clip-rule="nonzero" clip-path="url(#06f78f9977)"><path style=" stroke:none;fill-rule:nonzero;fill:#ff3131;fill-opacity:1;" d="M 0 0 L 119.640625 0 L 119.640625 374.808594 L 0 374.808594 Z M 0 0 "/></g></g><g clip-rule="nonzero" clip-path="url(#54fb713093)"><g clip-rule="nonzero" clip-path="url(#c598318835)"><path style=" stroke:none;fill-rule:nonzero;fill:#00bf63;fill-opacity:1;" d="M 374.996094 -0.00390625 L 374.996094 119.636719 L 170.765625 119.636719 L 170.765625 -0.00390625 Z M 374.996094 -0.00390625 "/></g></g><g clip-rule="nonzero" clip-path="url(#75328fcf39)"><g clip-rule="nonzero" clip-path="url(#01c95e71aa)"><path style=" stroke:none;fill-rule:nonzero;fill:#5158ff;fill-opacity:1;" d="M 302.417969 173.960938 L 302.417969 293.601562 L 171.097656 293.601562 L 171.097656 173.960938 Z M 302.417969 173.960938 "/></g></g></g></svg>