<svg xmlns="http://www.w3.org/2000/svg" xmlns:xlink="http://www.w3.org/1999/xlink" width="500" zoomAndPan="magnify" viewBox="0 0 375 374.999991" height="500" preserveAspectRatio="xMidYMid meet" version="1.2"><defs><clipPath id="059463aba8"><path d="M 0 0 L 119.640625 0 L 119.640625 375 L 0 375 Z M 0 0 "/></clipPath><clipPath id="23dde17d2e"><path d="M 170.917969 0 L 374.996094 0 L 374.996094 119.636719 L 170.917969 119.636719 Z M 170.917969 0 "/></clipPath><clipPath id="5b901f68b3"><path d="M 171 173.960938 L 302.417969 173.960938 L 302.417969 293.601562 L 171 293.601562 Z M 171 173.960938 "/></clipPath></defs><g id="df52ed9dea"><g clip-rule="nonzero" clip-path="url(#059463aba8)"><path style=" stroke:none;fill-rule:nonzero;fill:#ff3131;fill-opacity:1;" d="M 0 0 L 119.640625 0 L 119.640625 374.808594 L 0 374.808594 Z M 0 0 "/></g><g clip-rule="nonzero" clip-path="url(#23dde17d2e)"><path style=" stroke:none;fill-rule:nonzero;fill:#00bf63;fill-opacity:1;" d="M 374.996094 -0.00390625 L 374.996094 119.636719 L 170.765625 119.636719 L 170.765625 -0.00390625 Z M 374.996094 -0.00390625 "/></g><g clip-rule="nonzero" clip-path="url(#5b901f68b3)"><path style=" stroke:none;fill-rule:nonzero;fill:#5158ff;fill-opacity:1;" d="M 302.417969 173.960938 L 302.417969 293.601562 L 171.097656 293.601562 L 171.097656 173.960938 Z M 302.417969 173.960938 "/></g></g></svg>