<?xml version="1.0" encoding="UTF-8" standalone="no"?>
<svg
   enable-background="new 0 0 512 512"
   id="Layer_1"
   version="1.1"
   viewBox="0 0 256.79999 503.90024"
   xml:space="preserve"
   sodipodi:docname="facebook-icon.svg"
   width="256.79999"
   height="503.90024"
   inkscape:version="1.4 (86a8ad7, 2024-10-11)"
   xmlns:inkscape="http://www.inkscape.org/namespaces/inkscape"
   xmlns:sodipodi="http://sodipodi.sourceforge.net/DTD/sodipodi-0.dtd"
   xmlns="http://www.w3.org/2000/svg"
   xmlns:svg="http://www.w3.org/2000/svg"><defs
     id="defs1" /><sodipodi:namedview
     id="namedview1"
     pagecolor="#ffffff"
     bordercolor="#000000"
     borderopacity="0.25"
     inkscape:showpageshadow="2"
     inkscape:pageopacity="0.0"
     inkscape:pagecheckerboard="0"
     inkscape:deskcolor="#d1d1d1"
     showgrid="false"
     inkscape:clip-to-page="true"
     inkscape:zoom="0.88671875"
     inkscape:cx="117.85022"
     inkscape:cy="251.48899"
     inkscape:window-width="1280"
     inkscape:window-height="698"
     inkscape:window-x="1273"
     inkscape:window-y="713"
     inkscape:window-maximized="1"
     inkscape:current-layer="Layer_1" /><g
     id="g1"
     transform="translate(-139,-4.99975)"><path
       d="m 308.3,508.5 c -2.5,0.1 -4.1,0.3 -5.7,0.3 -34.2,0 -68.3,-0.1 -102.5,0.1 -4.8,0 -6.1,-1.3 -6.1,-6.1 0.1,-79.6 0.1,-159.3 0.1,-238.9 0,-2.1 0,-4.2 0,-6.9 -18.6,0 -36.7,0 -55.1,0 0,-28.4 0,-56.3 0,-85 1.9,0 3.7,0 5.4,0 15,0 30,-0.1 45,0.1 3.8,0 4.8,-1.1 4.8,-4.8 -0.2,-22.3 -0.2,-44.7 0,-67 0.1,-15.6 2.6,-30.8 9.8,-44.9 10.3,-19.9 26.6,-32.8 47.2,-40.8 16.8,-6.6 34.5,-9 52.3,-9.3 29,-0.4 58,-0.2 87,-0.3 2.7,0 4.9,-0.1 4.9,3.7 -0.1,27.5 -0.1,55 -0.1,82.5 0,0.3 -0.1,0.6 -0.5,1.9 -1.7,0 -3.6,0 -5.5,0 -18,0 -36,-0.1 -54,0 -10.4,0 -18.8,4.2 -24.1,13.3 -1.6,2.7 -2.6,6.2 -2.6,9.4 -0.3,17 0,34 -0.2,51 0,4 1.2,5.1 5.1,5.1 25,-0.2 50,-0.1 75,-0.1 2,0 3.9,0 7.3,0 -3.5,28.6 -6.9,56.6 -10.4,84.9 -26,0 -51.3,0 -77.1,0 0,84.1 0,167.7 0,251.8 z"
       id="path1" /></g></svg>
