<?xml version="1.0" ?><svg xmlns="http://www.w3.org/2000/svg" width="24" height="24" viewBox="0 0 24 24" fill="none"><path fill-rule="evenodd" clip-rule="evenodd" d="M11.2959 22.7101L11.2888 22.7031L11.2701 22.6844L11.2 22.614C11.1392 22.5526 11.0509 22.463 10.939 22.3479C10.7154 22.1177 10.3973 21.7854 10.0161 21.3736C9.25482 20.5512 8.23712 19.4064 7.21688 18.1216C6.19965 16.8406 5.16316 15.3995 4.37627 13.9861C3.60638 12.6032 3 11.1162 3 9.77778C3 4.90358 7.05618 1 12 1C16.9438 1 21 4.90358 21 9.77778C21 11.1162 20.3936 12.6032 19.6237 13.9861C18.8368 15.3995 17.8003 16.8406 16.7831 18.1216C15.7629 19.4064 14.7452 20.5512 13.9839 21.3736C13.6027 21.7854 13.2846 22.1177 13.061 22.3479C12.9491 22.463 12.8608 22.5526 12.8 22.614L12.7299 22.6844L12.7112 22.7031L12.7046 22.7096C12.7046 22.7096 12.7038 22.7104 12 22L12.7038 22.7104L12 23.4077L11.2959 22.7101ZM12 22L11.2959 22.7101C11.2959 22.7101 11.2962 22.7104 12 22ZM12 13C13.6569 13 15 11.6569 15 10C15 8.34315 13.6569 7 12 7C10.3431 7 9 8.34315 9 10C9 11.6569 10.3431 13 12 13Z" fill="black"/></svg>